<svg id="Layer_1" data-name="Layer 1" xmlns="http://www.w3.org/2000/svg" viewBox="0 0 110 110"><defs><style>.cls-1{fill:#f1716e;}.cls-2{fill:#528dc3;}.cls-3{fill:#fff;}</style></defs><title>bills</title><polygon class="cls-1" points="64.71 38.73 76.86 38.73 64.71 26.58 64.71 38.73"/><path class="cls-1" d="M963.63,547.47c-.73,0-1.78-.52-2.91-.52a4.68,4.68,0,0,0-1.48.28,3.46,3.46,0,0,0,1-2.62.94.94,0,0,0,0-.24h3.42v-2.2h-4a5.21,5.21,0,0,1-.47-2,2,2,0,0,1,2.26-2,3,3,0,0,1,2.77,1.83l3.09-1.5a6.55,6.55,0,0,0-6.2-3.68c-3.31,0-5.89,1.78-5.89,5a6.33,6.33,0,0,0,.52,2.4H954.1v2.2h2.44a4,4,0,0,1,.17,1.11c0,1-.69,1.95-2.39,2.71l1.26,2.84a7.58,7.58,0,0,1,3.69-1.11c1.69,0,3.09,1.11,4.69,1.11s3-.93,4-3.08l-2.84-1.66a1.52,1.52,0,0,1-1.45,1.19" transform="translate(-905.22 -484.86)"/><path class="cls-1" d="M973.41,553.24a16,16,0,1,0-12.54,6.06h0a15.87,15.87,0,0,0,10-3.54l6.55,7.57a2.27,2.27,0,0,0,3.48,0,2.32,2.32,0,0,0,0-3.48Zm-4.1-1.53a12,12,0,0,1-16.89,0,11.95,11.95,0,1,1,16.89-16.9,11.95,11.95,0,0,1,0,16.9" transform="translate(-905.22 -484.86)"/><path class="cls-2" d="M960.22,484.86a55,55,0,1,0,55,55,55,55,0,0,0-55-55" transform="translate(-905.22 -484.86)"/><path class="cls-3" d="M960.75,531.41a11.95,11.95,0,1,0,8.44,3.5,11.87,11.87,0,0,0-8.44-3.5m3.09,19.68c-1.59,0-3-1.11-4.68-1.11a7.52,7.52,0,0,0-3.68,1.11l-1.26-2.84c1.7-.75,2.38-1.72,2.38-2.7a3.78,3.78,0,0,0-.17-1.11H954v-2.2h1.64a6.34,6.34,0,0,1-.52-2.39c0-3.16,2.59-4.94,5.89-4.94a6.57,6.57,0,0,1,6.19,3.68l-3.1,1.5a3,3,0,0,0-2.76-1.83,2,2,0,0,0-2.25,2,5.16,5.16,0,0,0,.47,2h4v2.2h-3.42a.88.88,0,0,1,0,.24,3.47,3.47,0,0,1-1,2.62,4.44,4.44,0,0,1,1.47-.28c1.13,0,2.18.52,2.91.52a1.52,1.52,0,0,0,1.45-1.2l2.83,1.66c-.94,2.14-2.32,3.08-4,3.08m6-43.6H941.48a4.06,4.06,0,0,0-4.08,4v56.84a4.06,4.06,0,0,0,4.08,4H982a4.06,4.06,0,0,0,4.08-4V523.7Zm11,55.89a2.28,2.28,0,0,1-3.48,0l-6.53-7.56a15.92,15.92,0,0,1-10,3.52h0a16,16,0,1,1,12.53-6l7.53,6.59a2.32,2.32,0,0,1,0,3.48m-11-39.69V511.55l12.13,12.15Z" transform="translate(-905.22 -484.86)"/></svg>