<svg id="Layer_1" data-name="Layer 1" xmlns="http://www.w3.org/2000/svg" viewBox="0 0 109.99 110"><defs><style>.cls-1{fill:#c571a3;}.cls-2{fill:#9972ae;}.cls-3{fill:#fff;}</style></defs><title>meter</title><path class="cls-1" d="M936.4,560.43a2.07,2.07,0,1,0,2.07,2.07,2.07,2.07,0,0,0-2.07-2.07" transform="translate(-905.22 -484.86)"/><path class="cls-1" d="M934.33,529.5v20.71a2.07,2.07,0,0,0,2.07,2.07h12.43V527.43H936.4a2.07,2.07,0,0,0-2.07,2.07m7.09,11.15h-.81v-1.72h.8c.91,0,1.29-.45,1.29-1s-.47-.94-1.24-.94a2.08,2.08,0,0,0-1.92,1.18l-1.64-.93a4.15,4.15,0,0,1,3.73-2.1c2,0,3.23,1,3.23,2.51a2.12,2.12,0,0,1-1.28,2,2.24,2.24,0,0,1,1.57,2.13c0,1.53-1.32,2.88-3.64,2.88a3.89,3.89,0,0,1-3.81-2.35l1.8-.83a2.06,2.06,0,0,0,2,1.34c.93,0,1.4-.46,1.4-1.1s-.51-1-1.5-1" transform="translate(-905.22 -484.86)"/><path class="cls-1" d="M953,552.28h14.49V527.43H953ZM956.8,531h7.07v1.51c-1.07,1.48-3.44,4.68-3.37,7.64h-2.43c.08-3.09,2.17-6,3.22-7.19h-4.5Z" transform="translate(-905.22 -484.86)"/><path class="cls-1" d="M936.4,519.36a2.07,2.07,0,1,0-2.07-2.07,2.07,2.07,0,0,0,2.07,2.07" transform="translate(-905.22 -484.86)"/><path class="cls-2" d="M960.21,484.86a55,55,0,1,0,55,55,55,55,0,0,0-55-55" transform="translate(-905.22 -484.86)"/><path class="cls-3" d="M992.4,561.44a9.56,9.56,0,0,1-9.56,9.56H937.75a9.56,9.56,0,0,1-9.56-9.56v-43a9.56,9.56,0,0,1,9.56-9.55h45.09a9.56,9.56,0,0,1,9.56,9.55Zm-55.92-.93a2.07,2.07,0,1,0,2.08,2.07,2.07,2.07,0,0,0-2.08-2.07m47.64-41.08a2.07,2.07,0,1,0-2.07-2.07,2.06,2.06,0,0,0,2.07,2.07m-47.64,0a2.07,2.07,0,1,0-2.06-2.07,2.07,2.07,0,0,0,2.06,2.07m47.64,41.08a2.07,2.07,0,1,0,2.06,2.07,2.07,2.07,0,0,0-2.06-2.07m-49.7-30.93v20.71a2.07,2.07,0,0,0,2.06,2.07H948.9V527.5H936.48a2.07,2.07,0,0,0-2.06,2.07m7.09,11.15h-.81V539h.8c.91,0,1.29-.45,1.29-1s-.47-.93-1.24-.93a2.07,2.07,0,0,0-1.91,1.18l-1.64-.93a4.15,4.15,0,0,1,3.73-2.1c2,0,3.23,1,3.23,2.51a2.1,2.1,0,0,1-1.28,2,2.26,2.26,0,0,1,1.56,2.14c0,1.53-1.32,2.88-3.64,2.88a3.89,3.89,0,0,1-3.81-2.35l1.79-.83a2.07,2.07,0,0,0,2,1.33c.93,0,1.41-.45,1.41-1.1s-.51-1-1.5-1M953,552.35h14.49V527.5H953Zm3.83-21.24H964v1.52c-1.07,1.48-3.44,4.68-3.37,7.63h-2.43c.08-3.1,2.16-6,3.22-7.19h-4.51Zm27.24-3.61H971.69v24.85h12.43a2.07,2.07,0,0,0,2.07-2.07V529.57a2.07,2.07,0,0,0-2.07-2.07m-1.41,19.68h-1.2V549h-2.17v-1.85h-4.22v-1.6a13.37,13.37,0,0,0,1.62-5.7h2.1a12.32,12.32,0,0,1-1.69,5.52h2.25v-3.55h2.11v3.55h1.2Z" transform="translate(-905.22 -484.86)"/></svg>