<svg id="Layer_1" data-name="Layer 1" xmlns="http://www.w3.org/2000/svg" viewBox="0 0 109.99 110"><defs><style>.cls-1{fill:#6ab67f;}.cls-2{fill:#fff;}</style></defs><title>payments</title><path class="cls-1" d="M1015.25,540a55,55,0,1,1-54.87-55.12A55,55,0,0,1,1015.25,540" transform="translate(-905.26 -484.85)"/><path class="cls-2" d="M979.06,543.68a14.83,14.83,0,1,0-14.83-14.83A14.84,14.84,0,0,0,979.06,543.68Zm-7.79-16h1.85a7.21,7.21,0,0,1-.59-2.7c0-3.57,2.92-5.59,6.65-5.59a7.41,7.41,0,0,1,7,4.16l-3.5,1.7a3.34,3.34,0,0,0-3.13-2.07,2.29,2.29,0,0,0-2.55,2.25,6,6,0,0,0,.53,2.25H982v2.49h-3.86a.88.88,0,0,1,0,.26,3.94,3.94,0,0,1-1.12,3,4.86,4.86,0,0,1,1.67-.31c1.27,0,2.46.58,3.29.58a1.71,1.71,0,0,0,1.64-1.35l3.21,1.88c-1.06,2.41-2.62,3.47-4.48,3.47s-3.39-1.25-5.3-1.25a8.52,8.52,0,0,0-4.16,1.25l-1.43-3.21c1.93-.85,2.71-1.93,2.71-3a4.51,4.51,0,0,0-.19-1.24h-2.76Z" transform="translate(-905.26 -484.85)"/><path class="cls-2" d="M960,528.85a18.92,18.92,0,0,1,2.73-9.78H930.59a4.24,4.24,0,0,0-4.24,4.24v8.47h33.89A18.77,18.77,0,0,1,960,528.85Z" transform="translate(-905.26 -484.85)"/><path class="cls-2" d="M979.06,547.92a19.06,19.06,0,0,1-15.25-7.66H926.35v21.19a4.24,4.24,0,0,0,4.24,4.24h59.33a4.24,4.24,0,0,0,4.24-4.24v-21A19,19,0,0,1,979.06,547.92Zm4.5,9.29H970.85a2.12,2.12,0,1,1,0-4.24h12.71a2.12,2.12,0,0,1,0,4.24Z" transform="translate(-905.26 -484.85)"/></svg>