<svg id="Layer_1" data-name="Layer 1" xmlns="http://www.w3.org/2000/svg" viewBox="0 0 110 110"><defs><style>.cls-1{fill:#9972ae;}.cls-2{fill:#fff;}</style></defs><title>settings</title><path class="cls-1" d="M960.22,484.86a55,55,0,1,0,55,55,55,55,0,0,0-55-55" transform="translate(-905.22 -484.86)"/><path class="cls-2" d="M997.08,543.37v-7.07l-10.54-2.71a27,27,0,0,0-3.28-7.92l5.51-9.39-5-5-9.37,5.54a26.8,26.8,0,0,0-7.92-3.28L963.73,503h-7.07l-2.71,10.53a26.94,26.94,0,0,0-7.92,3.29l-9.39-5.51-5,5,5.54,9.37a26.83,26.83,0,0,0-3.29,7.92l-10.53,2.74v7.08l10.53,2.71a27,27,0,0,0,3.29,7.92l-5.51,9.39,5,5L946,562.9a26.77,26.77,0,0,0,7.92,3.29l2.74,10.53h7.08l2.71-10.53a26.91,26.91,0,0,0,7.92-3.29l9.39,5.51,5-5L983.27,554a27,27,0,0,0,3.28-7.93Zm-36.86,8.85a12.36,12.36,0,1,1,12.37-12.37A12.36,12.36,0,0,1,960.21,552.22Z" transform="translate(-905.22 -484.86)"/></svg>